<?xml version="1.0" encoding="utf-8"?>
<!-- Generator: Adobe Illustrator 17.0.0, SVG Export Plug-In . SVG Version: 6.00 Build 0)  -->
<!DOCTYPE svg PUBLIC "-//W3C//DTD SVG 1.1//EN" "http://www.w3.org/Graphics/SVG/1.1/DTD/svg11.dtd">
<svg version="1.1" id="Layer_1" xmlns="http://www.w3.org/2000/svg" xmlns:xlink="http://www.w3.org/1999/xlink" x="0px" y="0px"
	 width="38px" height="38px" viewBox="0 0 38 38" enable-background="new 0 0 38 38" xml:space="preserve">
<path fill="#FFFFFF" d="M19,38C8.507,38,0,29.494,0,19S8.507,0,19,0s19,8.507,19,19C37.988,29.489,29.489,37.988,19,38z M19,0.927
	C9.018,0.927,0.927,9.019,0.927,19S9.018,37.073,19,37.073S37.073,28.982,37.073,19C37.062,9.023,28.977,0.938,19,0.927z"/>
<path fill="#FFFFFF" d="M14.975,16.173H16.7V14.5c0-0.741,0.019-1.88,0.556-2.585c0.619-0.849,1.629-1.323,2.677-1.255
	c1.04-0.046,2.082,0.059,3.092,0.31l-0.431,2.555c-0.453-0.125-0.92-0.195-1.39-0.208c-0.671,0-1.272,0.241-1.272,0.911v1.946h2.75
	l-0.192,2.496h-2.557v8.672H16.7v-8.67h-1.725V16.173z"/>
</svg>
