<?xml version="1.0" encoding="utf-8"?>
<!-- Generator: Adobe Illustrator 17.0.0, SVG Export Plug-In . SVG Version: 6.00 Build 0)  -->
<!DOCTYPE svg PUBLIC "-//W3C//DTD SVG 1.1//EN" "http://www.w3.org/Graphics/SVG/1.1/DTD/svg11.dtd">
<svg version="1.1" id="Layer_1" xmlns="http://www.w3.org/2000/svg" xmlns:xlink="http://www.w3.org/1999/xlink" x="0px" y="0px"
	 width="38px" height="38px" viewBox="0 0 38 38" enable-background="new 0 0 38 38" xml:space="preserve">
<path fill="#FFFFFF" d="M19,38C8.507,38,0,29.493,0,19S8.507,0,19,0s19,8.507,19,19C37.988,29.489,29.489,37.988,19,38z M19,0.927
	C9.018,0.927,0.927,9.018,0.927,19S9.018,37.073,19,37.073S37.073,28.982,37.073,19C37.062,9.023,28.977,0.938,19,0.927z"/>
<path fill="#FFFFFF" d="M14.332,25.908h-3.254V15.493h3.254V25.908z M12.622,14.19h-0.024c-0.996,0.073-1.861-0.675-1.934-1.671
	c-0.003-0.045-0.005-0.09-0.005-0.135c0-1.027,0.785-1.807,1.987-1.807c0.999-0.08,1.874,0.665,1.954,1.664
	c0.004,0.048,0.006,0.096,0.006,0.143C14.605,13.393,13.844,14.19,12.622,14.19z M27.341,25.908h-3.688v-5.39
	c0-1.411-0.576-2.373-1.844-2.373c-0.8,0.003-1.509,0.517-1.761,1.277c-0.078,0.276-0.105,0.564-0.08,0.85v5.636h-3.653
	c0,0,0.046-9.546,0-10.415h3.653v1.633c0.216-0.714,1.383-1.733,3.244-1.733c2.312,0,4.129,1.498,4.129,4.724V25.908z"/>
</svg>
