<?xml version="1.0" encoding="utf-8"?>
<!-- Generator: Adobe Illustrator 17.0.0, SVG Export Plug-In . SVG Version: 6.00 Build 0)  -->
<!DOCTYPE svg PUBLIC "-//W3C//DTD SVG 1.1//EN" "http://www.w3.org/Graphics/SVG/1.1/DTD/svg11.dtd">
<svg version="1.1" id="Layer_1" xmlns="http://www.w3.org/2000/svg" xmlns:xlink="http://www.w3.org/1999/xlink" x="0px" y="0px"
	 width="38px" height="38px" viewBox="0 0 38 38" enable-background="new 0 0 38 38" xml:space="preserve">
<path fill="#FFFFFF" d="M19,38C8.507,38,0,29.494,0,19S8.507,0,19,0s19,8.507,19,19C37.989,29.489,29.489,37.989,19,38z M19,0.927
	C9.019,0.927,0.927,9.019,0.927,19S9.019,37.074,19,37.074S37.074,28.982,37.074,19C37.063,9.023,28.977,0.938,19,0.927z"/>
<path fill="#FFFFFF" d="M27.342,14.729c-0.625,0.277-1.287,0.458-1.966,0.539c0.714-0.427,1.249-1.1,1.502-1.893
	c-0.672,0.399-1.407,0.679-2.174,0.83c-1.295-1.378-3.461-1.445-4.839-0.15c-0.687,0.646-1.078,1.547-1.079,2.49
	c-0.001,0.262,0.028,0.524,0.088,0.779c-2.753-0.137-5.318-1.436-7.057-3.574c-0.907,1.565-0.444,3.565,1.059,4.571
	c-0.544-0.017-1.075-0.164-1.551-0.427v0.042c0,1.63,1.149,3.034,2.747,3.356c-0.294,0.081-0.597,0.122-0.902,0.12
	c-0.216,0-0.432-0.02-0.644-0.061c0.448,1.395,1.733,2.35,3.198,2.376c-1.436,1.121-3.256,1.63-5.066,1.418
	c1.565,1.005,3.386,1.539,5.246,1.537c6.297,0,9.739-5.214,9.739-9.738c0-0.149-0.003-0.297-0.009-0.443
	C26.305,16.017,26.883,15.417,27.342,14.729"/>
</svg>
